<svg width="1200px" height="30px" xmlns="http://www.w3.org/2000/svg">
<g class="test" fill="none" stroke="#000" stroke-width="1">
  <path d="M0.000000,9.486150 L400.000000,9.486150 L479.589844,9.406170 L496.777344,8.922630 L515.039064,8.446850 L523.144534,8.504420 L529.785164,8.805200 L535.742194,9.332690 L541.406254,10.096600 L547.070314,11.127810 L553.222654,12.525100 L562.011714,14.835920 L569.824214,16.800550 L574.218743,17.634660 L577.734373,18.042180 L580.761713,18.139600 L583.496093,17.976370 L586.035153,17.572220 L588.476563,16.921000 L590.917974,15.981530 L593.261724,14.781480 L595.703134,13.194910 L598.242194,11.155650 L605.175784,5.192850 L607.714844,3.681400 L610.156254,2.567700 L612.597664,1.758740 L615.136724,1.208710 L617.773444,0.915290 L620.605474,0.871440 L623.730474,1.093620 L627.343754,1.627310 L631.738284,2.557520 L638.378914,4.269190 L649.414074,7.105270 L655.468764,8.367050 L661.132824,9.278850 L666.796884,9.925030 L672.851574,10.347040 L679.589854,10.547080 L687.792983,10.516430 L700.292983,10.174520 L723.632823,9.532900 L740.332044,9.375490 L766.992204,9.432720 L800.000013,9.513850 L1200.000013,9.514000 " />
  <path d="M0.000000,9.513800 L400.000000,9.513860 L479.589844,9.593840 L496.777344,10.077380 L515.039064,10.553160 L523.144534,10.495590 L529.785164,10.194810 L535.742194,9.667320 L541.406254,8.903410 L547.070314,7.872200 L553.222654,6.474910 L562.011714,4.164090 L569.824214,2.199460 L574.218743,1.365350 L577.734373,0.957830 L580.761713,0.860410 L583.496093,1.023640 L586.035153,1.427790 L588.476563,2.079010 L590.917974,3.018480 L593.261724,4.218530 L595.703134,5.805100 L598.242194,7.844360 L605.175784,13.807160 L607.714844,15.318610 L610.156254,16.432310 L612.597664,17.241270 L615.136724,17.791300 L617.773444,18.084720 L620.605474,18.128570 L623.730474,17.906390 L627.343754,17.372700 L631.738284,16.442490 L638.378914,14.730820 L649.414074,11.894740 L655.468764,10.632960 L661.132824,9.721160 L666.796884,9.074980 L672.851574,8.652970 L679.589854,8.452930 L687.792983,8.483580 L700.292983,8.825490 L723.632823,9.467110 L740.332044,9.624520 L766.992204,9.567290 L800.000013,9.486160 L1200.000013,9.486000 " />
  <path d="M0.000000,9.495000 L400.000000,9.494690 L462.207031,9.536030 L485.253912,9.923970 L502.636723,10.129650 L512.109383,9.981470 L520.019543,9.600090 L527.343763,8.985310 L534.765643,8.096730 L544.042983,6.700000 L555.566423,4.993430 L560.644553,4.514820 L564.746113,4.380520 L568.359393,4.519250 L571.582053,4.896190 L574.609393,5.506730 L577.539083,6.366300 L580.371113,7.474890 L583.203143,8.878240 L586.132833,10.657810 L589.160173,12.858460 L592.285173,15.517390 L595.507833,18.657800 L598.925803,22.392500 L600.195333,23.686890 L602.246113,24.009870 L604.394553,24.083860 L606.738303,23.896560 L609.277363,23.427700 L612.207053,22.610730 L615.820333,21.303220 L620.800803,19.175480 L633.593773,13.586350 L638.574243,11.792040 L643.164083,10.433200 L647.558613,9.410950 L652.050802,8.639690 L656.738302,8.104630 L661.816432,7.792270 L667.578152,7.705470 L674.707062,7.872540 L685.839872,8.431500 L703.906282,9.313420 L716.210973,9.627890 L730.664102,9.720810 L758.398483,9.567120 L795.312542,9.473140 L800.000042,9.475110 L1200.000011,9.475000 " />
  <path d="M0.000000,9.475000 L400.000000,9.475110 L443.750000,9.580510 L479.589840,9.680390 L492.773430,9.423710 L505.175770,8.918010 L531.738270,7.710310 L537.988270,7.785070 L543.261710,8.104610 L548.046870,8.653640 L552.539060,9.430710 L556.933589,10.459000 L561.425779,11.792030 L566.113279,13.472370 L571.582029,15.741820 L586.914060,22.318831 L590.234370,23.310191 L592.968750,23.855611 L595.410160,24.078361 L597.656250,24.018851 L599.707030,23.708331 L600.097660,23.527171 L603.710940,19.476711 L607.031250,16.150541 L610.156250,13.406681 L613.281250,11.054841 L616.406250,9.095941 L619.433590,7.561991 L622.363280,6.399851 L625.292970,5.530961 L628.320310,4.911811 L631.542970,4.526921 L635.058600,4.381271 L638.964850,4.490801 L643.554690,4.891511 L649.609380,5.702491 L671.484380,8.862271 L678.808600,9.519431 L686.328130,9.927251 L694.824219,10.116531 L705.566410,10.078431 L766.210941,9.425701 L800.000000,9.494691 L1200.000000,9.494691 " />
  <path d="M0.000000,9.478640 L400.000000,9.478640 L449.023441,9.539190 L497.070320,9.772160 L507.128910,9.437760 L516.601570,8.859410 L527.734380,7.898000 L541.796880,6.702830 L547.753910,6.474570 L552.539070,6.544390 L556.738290,6.860060 L560.644540,7.417410 L564.257820,8.195910 L567.773450,9.223170 L571.289080,10.535610 L574.902360,12.191660 L578.613300,14.213060 L582.714860,16.797629 L587.597670,20.264889 L600.097670,29.434729 L604.296890,26.432629 L618.359390,16.087919 L622.558610,13.540539 L626.367200,11.574189 L629.980480,10.027929 L633.593760,8.790639 L637.207041,7.847819 L640.917980,7.161099 L644.824230,6.711009 L649.121110,6.488939 L653.906270,6.508439 L659.765650,6.804019 L668.359400,7.529239 L685.742211,9.026489 L695.214871,9.540399 L705.175811,9.811939 L717.285191,9.866279 L739.843781,9.643439 L768.457060,9.460709 L800.000031,9.478589 L1200.000000,9.478589 " />
</g>
</svg>
