<svg version="1.1" xmlns="http://www.w3.org/2000/svg" xmlns:xlink="http://www.w3.org/1999/xlink" width="800" height="800"><defs/><g transform="scale(2,2)"><g id="background-ca58cfa6"><rect fill="white" stroke="none" x="0" y="0" width="400" height="400" class="dcg-svg-background"/></g><g id="background-images-ca58cfa6"/><g id="graphpaper-ca58cfa6"><g id="axis-ca58cfa6"><g><g><path fill="none" stroke="rgb(0,0,0)" class="dcg-svg-tickmark" paint-order="fill stroke markers" d="" stroke-opacity="0.9" stroke-miterlimit="2" stroke-width="1.5" stroke-dasharray=""/></g></g></g></g><g id="expressions-ca58cfa6"><g id="sketch-ca58cfa6"><title>Expression 3</title><path fill="#388c46" stroke="none" paint-order="stroke fill markers" d="" fill-opacity="0.4"/><g><path fill="none" stroke="#388c46" class="dcg-svg-curve" paint-order="fill stroke markers" d=" M -0.5 199.48615320691277 L -0.5 199.48615320691277 L 79.08984375 199.40617222272294 L 96.27734375 198.9226351949646 L 114.5390625 198.44685418622856 L 122.64453125 198.50442525283216 L 129.28515625 198.80520049598687 L 135.2421875 199.3326937962819 L 140.90625 200.09660237902474 L 146.5703125 201.12781083780712 L 152.72265625 202.52510066310688 L 161.51171875 204.8359165763709 L 169.32421875 206.800546547981 L 173.71875 207.63465957409488 L 177.234375 208.04217626088484 L 180.26171875 208.13959953584325 L 182.99609375 207.9763694169357 L 185.53515625 207.57221743153332 L 187.9765625 206.9210007616656 L 190.41796875 205.98152671264336 L 192.76171875 204.78147224625843 L 195.203125 203.1949018962665 L 197.7421875 201.15564158156468 L 204.67578125 195.19284641531578 L 207.21484375 193.68139181097487 L 209.65625 192.56769004479636 L 212.09765625 191.75872582217835 L 214.63671875 191.20869500985327 L 217.2734375 190.91527425685263 L 220.10546875 190.87142884083315 L 223.23046875 191.09361274339244 L 226.84375 191.62730188565214 L 231.23828125 192.5575157685139 L 237.87890625 194.2691898119245 L 248.9140625 197.10526673974968 L 254.96875 198.36704362823605 L 260.6328125 199.27884684132016 L 266.296875 199.9250237195692 L 272.3515625 200.34703094833006 L 279.08984375 200.5470749671843 L 287.29296875 200.51642257533285 L 299.79296875 200.17451587286226 L 323.1328125 199.53289821164066 L 339.83203125 199.37548866150343 L 366.4921875 199.43271931164753 L 399.5 199.51384679308723" stroke-linecap="round" stroke-linejoin="round" stroke-miterlimit="10" stroke-width="2.5" stroke-opacity="0.9" stroke-dasharray=""/></g></g><g id="sketch-ca58cfa6"><title>Expression 4</title><path fill="#6042a6" stroke="none" paint-order="stroke fill markers" d="" fill-opacity="0.4"/><g><path fill="none" stroke="#6042a6" class="dcg-svg-curve" paint-order="fill stroke markers" d=" M -0.5 199.51384679308723 L -0.5 199.51384679308723 L 79.08984375 199.59382777727706 L 96.27734375 200.0773648050354 L 114.5390625 200.55314581377144 L 122.64453125 200.49557474716784 L 129.28515625 200.19479950401313 L 135.2421875 199.6673062037181 L 140.90625 198.90339762097526 L 146.5703125 197.87218916219288 L 152.72265625 196.47489933689312 L 161.51171875 194.1640834236291 L 169.32421875 192.199453452019 L 173.71875 191.36534042590512 L 177.234375 190.95782373911516 L 180.26171875 190.86040046415675 L 182.99609375 191.0236305830643 L 185.53515625 191.42778256846668 L 187.9765625 192.0789992383344 L 190.41796875 193.01847328735664 L 192.76171875 194.21852775374157 L 195.203125 195.8050981037335 L 197.7421875 197.84435841843532 L 204.67578125 203.80715358468422 L 207.21484375 205.31860818902513 L 209.65625 206.43230995520364 L 212.09765625 207.24127417782165 L 214.63671875 207.79130499014673 L 217.2734375 208.08472574314737 L 220.10546875 208.12857115916685 L 223.23046875 207.90638725660756 L 226.84375 207.37269811434786 L 231.23828125 206.4424842314861 L 237.87890625 204.7308101880755 L 248.9140625 201.89473326025032 L 254.96875 200.63295637176395 L 260.6328125 199.72115315867984 L 266.296875 199.0749762804308 L 272.3515625 198.65296905166994 L 279.08984375 198.4529250328157 L 287.29296875 198.48357742466715 L 299.79296875 198.82548412713774 L 323.1328125 199.46710178835934 L 339.83203125 199.62451133849657 L 366.4921875 199.56728068835247 L 399.5 199.48615320691277" stroke-linecap="round" stroke-linejoin="round" stroke-miterlimit="10" stroke-width="2.5" stroke-opacity="0.9" stroke-dasharray=""/></g></g><g id="sketch-ca58cfa6"><title>Expression 5</title><path fill="#000000" stroke="none" paint-order="stroke fill markers" d="" fill-opacity="0.4"/><g><path fill="none" stroke="#000000" class="dcg-svg-curve" paint-order="fill stroke markers" d=" M -0.5 199.4946897534393 L -0.5 199.4946897534393 L 61.70703125 199.53602863769189 L 84.75390625 199.92396669398903 L 102.13671875 200.12964764943527 L 111.609375 199.98146284085902 L 119.51953125 199.6000800929541 L 126.84375 198.98530316389974 L 134.265625 198.09672393708672 L 143.54296875 196.6999946585228 L 155.06640625 194.9934227083943 L 160.14453125 194.51481241412336 L 164.24609375 194.3805171974679 L 167.859375 194.51924832757948 L 171.08203125 194.8961924038701 L 174.109375 195.50673695064563 L 177.0390625 196.36630984374415 L 179.87109375 197.474895443087 L 182.703125 198.87824624025228 L 185.6328125 200.65781575136967 L 188.66015625 202.85847034408658 L 191.78515625 205.51740226133023 L 195.0078125 208.6578099492855 L 198.42578125 212.39250875046628 L 199.6953125 213.68690192167657 L 201.74609375 214.0098845514629 L 203.89453125 214.0838710605795 L 206.23828125 213.8965685966325 L 208.77734375 213.42771012847948 L 211.70703125 212.61073931628613 L 215.3203125 211.3032243663822 L 220.30078125 209.17548484654367 L 233.09375 203.5863514436654 L 238.07421875 201.79203662291047 L 242.6640625 200.43319261012053 L 247.05859375 199.4109409155413 L 251.55078125 198.6396814956573 L 256.23828125 198.1046173049835 L 261.31640625 197.7922619559621 L 267.078125 197.70546373304583 L 274.20703125 197.87253826070736 L 285.33984375 198.43149841205667 L 303.40625 199.3134138993274 L 315.7109375 199.62788264681845 L 330.1640625 199.72080560804554 L 357.8984375 199.56711939491527 L 394.8125 199.47313509314085 L 399.5 199.47510743086" stroke-linecap="round" stroke-linejoin="round" stroke-miterlimit="10" stroke-width="2.5" stroke-opacity="0.9" stroke-dasharray=""/></g></g><g id="sketch-ca58cfa6"><title>Expression 6</title><path fill="#c74440" stroke="none" paint-order="stroke fill markers" d="" fill-opacity="0.4"/><g><path fill="none" stroke="#c74440" class="dcg-svg-curve" paint-order="fill stroke markers" d=" M -0.5 199.47510743086 L -0.5 199.47510743086 L 43.25 199.5805104691166 L 79.08984375 199.6803944834356 L 92.2734375 199.4237183489476 L 104.67578125 198.91801913287554 L 131.23828125 197.71032333419078 L 137.48828125 197.78508213229333 L 142.76171875 198.1046173049835 L 147.546875 198.65364719149989 L 152.0390625 199.4307207202703 L 156.43359375 200.45901074589722 L 160.92578125 201.79203662291047 L 165.61328125 203.47237985597968 L 171.08203125 205.74183313867138 L 186.4140625 212.3188385658933 L 189.734375 213.31019484643542 L 192.46875 213.85561821984962 L 194.91015625 214.07837312418522 L 197.15625 214.01886049832055 L 199.20703125 213.70833812637795 L 199.59765625 213.527178127959 L 203.2109375 209.47672033402512 L 206.53125 206.15055105745063 L 209.65625 203.40668607335184 L 212.78125 201.0548429048382 L 215.90625 199.09594474735786 L 218.93359375 197.56199428201376 L 221.86328125 196.39985341723084 L 224.79296875 195.5309632623847 L 227.8203125 194.91181364546364 L 231.04296875 194.52692519030106 L 234.55859375 194.38127233519907 L 238.46484375 194.49080314434636 L 243.0546875 194.89151070758393 L 249.109375 195.702494379706 L 270.984375 198.86227073923237 L 278.30859375 199.51943159481723 L 285.828125 199.92725104536402 L 294.32421875 200.1165339789672 L 305.06640625 200.0784364290751 L 365.7109375 199.42570423055693 L 399.5 199.4946897534393" stroke-linecap="round" stroke-linejoin="round" stroke-miterlimit="10" stroke-width="2.5" stroke-opacity="0.9" stroke-dasharray=""/></g></g><g id="sketch-ca58cfa6"><title>Expression 7</title><path fill="#2d70b3" stroke="none" paint-order="stroke fill markers" d="" fill-opacity="0.4"/><g><path fill="none" stroke="#2d70b3" class="dcg-svg-curve" paint-order="fill stroke markers" d=" M -0.5 199.47864338420712 L -0.5 199.47864338420712 L 48.5234375 199.53919020767853 L 96.5703125 199.77216292268741 L 106.62890625 199.43776351556076 L 116.1015625 198.85941844985246 L 127.234375 197.89801206481724 L 141.296875 196.70284130602187 L 147.25390625 196.47458431696037 L 152.0390625 196.54440804766068 L 156.23828125 196.86008094202606 L 160.14453125 197.41743115498804 L 163.7578125 198.1959345620502 L 167.2734375 199.22319133954315 L 170.7890625 200.53563629147823 L 174.40234375 202.19168581318803 L 178.11328125 204.2130891129116 L 182.21484375 206.79765722062638 L 187.09765625 210.2649221968705 L 199.59765625 219.43476403899507 L 203.796875 216.43266211895732 L 217.859375 206.0879548217273 L 222.05859375 203.54057766971934 L 225.8671875 201.57422767328782 L 229.48046875 200.0279657573698 L 233.09375 198.79067587280113 L 236.70703125 197.8478528789772 L 240.41796875 197.16113227686304 L 244.32421875 196.71104215527689 L 248.62109375 196.48897487505772 L 253.40625 196.50847951147773 L 259.265625 196.80406184925155 L 267.859375 197.5292814519026 L 285.2421875 199.02653472700732 L 294.71484375 199.54044920530714 L 304.67578125 199.8119867518712 L 316.78515625 199.86633148431207 L 339.34375 199.64349373843947 L 367.95703125 199.4607630011137 L 399.5 199.47864338420712" stroke-linecap="round" stroke-linejoin="round" stroke-miterlimit="10" stroke-width="2.5" stroke-opacity="0.9" stroke-dasharray=""/></g></g></g><g id="labels-ca58cfa6"/></g></svg>